HIERARCHY
ROOT Hips
{
	OFFSET 0.00000 0.00000 0.00000
	CHANNELS 6 Xposition Yposition Zposition Yrotation Zrotation Xrotation 
	JOINT Lumbar
	{
		OFFSET 0 0 0
		CHANNELS 3 Zrotation Xrotation Yrotation
		JOINT Neck
		{
			OFFSET 0.00 0.2701 0.00
			CHANNELS 3 Zrotation Xrotation Yrotation
			End Site
			{
				OFFSET 0.00 0.1379 0.00
			}
		}
		JOINT RightShoulder
		{
			OFFSET 0.0119 0.2289 0.1181
			CHANNELS 3 Zrotation Xrotation Yrotation
			JOINT RightElbow
			{
				OFFSET 0.00 -0.1475 0.00
				CHANNELS 2 Zrotation Yrotation
				JOINT RightWrist
				{
					OFFSET 0.00 -0.1605 0.00
					CHANNELS 2 Zrotation Xrotation
					End Site
					{
						OFFSET 0.0040 -0.1068 0.0006
					}
				}
			}
		}
		JOINT LeftShoulder
		{
			OFFSET 0.0119 0.2289 -0.1181
			CHANNELS 3 Zrotation Xrotation Yrotation
			JOINT LeftElbow
			{
				OFFSET 0.00 -0.1475 0.00
				CHANNELS 2 Zrotation Yrotation
				JOINT LeftWrist
				{
					OFFSET 0.00 -0.1605 0.00
					CHANNELS 2 Zrotation Xrotation
					End Site
					{
						OFFSET 0.0040 -0.1068 -0.0006
					}
				}
			}
		}
	}
	JOINT RightHip
	{
		OFFSET 0.0316 -0.0424 0.0458
		CHANNELS 3 Zrotation Xrotation Yrotation
		JOINT RightKnee
		{
			OFFSET 0.00 -0.2438 0.00
			CHANNELS 1 Zrotation
			JOINT RightAnkle
			{
				OFFSET 0.00 -0.2449 0.00
				CHANNELS 3 Zrotation Xrotation Yrotation
				End Site
				{
					OFFSET 0.1237 -0.0542 0.0051
				}
			}
		}
	}
	JOINT LeftHip
	{
		OFFSET 0.0316 -0.0424 -0.0458
		CHANNELS 3 Zrotation Xrotation Yrotation
		JOINT LeftKnee
		{
			OFFSET 0.00 -0.2438 0.00
			CHANNELS 1 Zrotation
			JOINT LeftAnkle
			{
				OFFSET 0.00 -0.2449 0.00
				CHANNELS 3 Zrotation Xrotation Yrotation
				End Site
				{
					OFFSET 0.1237 -0.0542 -0.0051
				}
			}
		}
	}
}
MOTION
Frames: 32
Frame Time: 0.02
0 0.57926 -0 184.26831 0 -3.08502 2.0111 2.48925 -4.83013 -30.71683 2.84744 3.08988 -11.9866 -69.83504 -77.86304 24.24106 76.45241 -20.15556 -1.96006 2.1006 70.72832 61.18625 21.71358 -74.84479 -30.58761 2.09027 -4.26537 3.27591 4.73553 -6.51832 -1.01206 -2.78726 -6.62865 -1.50119 4.28565 -2.07902 -7.26058 4.33562 1.73121 0.57764
1e-05 0.57926 2e-05 184.2634 0 -3.08616 2.00811 2.49025 -4.83579 -30.70575 2.84918 3.08548 -11.95226 -69.81606 -77.82682 24.23928 76.43068 -20.14426 -1.96206 2.02079 70.725 61.26384 21.71028 -74.88581 -30.54738 2.09803 -4.26607 3.27457 4.74286 -6.51337 -1.01857 -2.81733 -6.63096 -1.50084 4.2844 -2.07847 -7.26274 4.33745 1.73059 0.58293
1e-05 0.57927 5e-05 184.25843 0 -3.08731 2.00517 2.49128 -4.84136 -30.69478 2.85088 3.08115 -11.91803 -69.79714 -77.79076 24.2375 76.40919 -20.1331 -1.96405 1.94156 70.72171 61.34083 21.70699 -74.92658 -30.50746 2.10573 -4.26674 3.27324 4.75023 -6.5085 -1.02503 -2.84719 -6.63327 -1.50053 4.28315 -2.07789 -7.26484 4.33928 1.72998 0.58826
2e-05 0.57927 7e-05 184.25314 0 -3.08848 2.00242 2.49233 -4.84663 -30.68428 2.85247 3.07703 -11.88353 -69.77829 -77.75477 24.23573 76.38837 -20.12241 -1.96603 1.86407 70.71859 61.41619 21.7037 -74.96669 -30.46833 2.11329 -4.26731 3.27192 4.75788 -6.50384 -1.03138 -2.87653 -6.63567 -1.50044 4.2819 -2.07725 -7.26674 4.34115 1.72938 0.59401
3e-05 0.57927 0.0001 184.24954 0 -3.08956 1.99868 2.49314 -4.8535 -30.67143 2.85468 3.0718 -11.85002 -69.75911 -77.71813 24.23393 76.36391 -20.10924 -1.96805 1.7776 70.71468 61.50021 21.70037 -75.0102 -30.42498 2.12162 -4.26841 3.27051 4.76408 -6.498 -1.03832 -2.90861 -6.63766 -1.49924 4.28066 -2.07703 -7.26971 4.34282 1.72871 0.5978
3e-05 0.57927 0.00012 184.24237 0 -3.09082 1.997 2.49454 -4.85697 -30.66347 2.85555 3.06892 -11.81475 -69.74062 -77.68307 24.23218 76.34722 -20.10131 -1.97001 1.71006 70.71238 61.56581 21.69716 -75.04654 -30.39061 2.12832 -4.26837 3.26931 4.77331 -6.49469 -1.04402 -2.93488 -6.64048 -1.50037 4.27941 -2.07586 -7.27042 4.3449 1.72819 0.60559
2e-05 0.57927 0.00014 184.22478 0 -3.09253 2.00142 2.49708 -4.85084 -30.67016 2.85275 3.07269 -11.77094 -69.72388 -77.65007 24.23064 76.35201 -20.10827 -1.9717 1.69603 70.71488 61.58059 21.69394 -75.0629 -30.38077 2.13046 -4.26529 3.26864 4.79183 -6.49822 -1.04614 -2.94523 -6.64624 -1.50828 4.27807 -2.07248 -7.26465 4.34837 1.72791 0.62602
-1e-05 0.57927 0.00016 184.20367 0 -3.09445 2.00783 2.50029 -4.84133 -30.6816 2.84861 3.0788 -11.72591 -69.70788 -77.61898 24.22915 76.36467 -20.12044 -1.97335 1.70078 70.71887 61.57687 21.69093 -75.07212 -30.38003 2.13098 -4.26103 3.26822 4.81329 -6.50434 -1.04705 -2.94971 -6.65276 -1.51847 4.27678 -2.06804 -7.25663 4.3522 1.72777 0.65015
-3e-05 0.57927 0.00018 184.18448 0 -3.09631 2.0131 2.50353 -4.83346 -30.69014 2.84498 3.08374 -11.68391 -69.6916 -77.58861 24.22758 76.3737 -20.12994 -1.9751 1.69623 70.72202 61.58145 21.68801 -75.08467 -30.37531 2.1323 -4.25724 3.26768 4.8328 -6.5094 -1.04858 -2.95682 -6.65846 -1.52739 4.27549 -2.06388 -7.24982 4.35572 1.7277 0.67165
-5e-05 0.57927 0.0002 184.16388 0 -3.09798 2.01946 2.5054 -4.82506 -30.7018 2.84158 3.08916 -11.63182 -69.67494 -77.55192 24.22618 76.38286 -20.14069 -1.97651 1.69528 70.72614 61.58604 21.6842 -75.09662 -30.36997 2.13333 -4.25376 3.26704 4.85482 -6.51398 -1.04975 -2.96409 -6.66603 -1.53734 4.27398 -2.06075 -7.24228 4.35989 1.7272 0.69741
-7e-05 0.57927 0.00022 184.14548 0 -3.10015 2.02392 2.51025 -4.81709 -30.70811 2.83761 3.09412 -11.60002 -69.65943 -77.52838 24.22451 76.39373 -20.1501 -1.97859 1.69081 70.72827 61.58675 21.68242 -75.10842 -30.36803 2.13462 -4.24933 3.26682 4.87239 -6.52014 -1.05144 -2.96964 -6.67008 -1.54566 4.27312 -2.05501 -7.23565 4.36276 1.72748 0.71488
-7e-05 0.57927 0.00025 184.13321 0 -3.1032 2.02341 2.52341 -4.81001 -30.69819 2.83055 3.09726 -11.62802 -69.64512 -77.54435 24.22164 76.40653 -20.15436 -1.98295 1.67632 70.72737 61.57668 21.68505 -75.1192 -30.37366 2.13668 -4.24269 3.26644 4.87616 -6.53026 -1.05436 -2.97175 -6.66239 -1.54917 4.27256 -2.04387 -7.23266 4.36214 1.73094 0.7109
-6e-05 0.57927 0.00027 184.12346 0 -3.10683 2.02076 2.53947 -4.80367 -30.68275 2.82329 3.09983 -11.67571 -69.63215 -77.57266 24.21862 76.42093 -20.15705 -1.98794 1.65692 70.72392 61.5641 21.68999 -75.13061 -30.38231 2.13913 -4.23505 3.26675 4.87544 -6.54188 -1.05796 -2.97235 -6.65147 -1.55092 4.27298 -2.02982 -7.23057 4.36012 1.73495 0.69795
-6e-05 0.57927 0.0003 184.11308 0 -3.1105 2.01865 2.55409 -4.79779 -30.67001 2.81732 3.10268 -11.71229 -69.61987 -77.59304 24.21592 76.43518 -20.16068 -1.99229 1.63681 70.71978 61.5558 21.69451 -75.14316 -30.38932 2.14161 -4.22784 3.26752 4.87734 -6.55257 -1.06158 -2.97374 -6.64326 -1.55337 4.27385 -2.0161 -7.22772 4.35865 1.73801 0.68762
-6e-05 0.57928 0.00034 184.10032 0 -3.11293 2.01857 2.56939 -4.78858 -30.65668 2.80625 3.10561 -11.7585 -69.60258 -77.6238 24.21201 76.4473 -20.16388 -1.99794 1.62937 70.72344 61.534 21.69608 -75.14905 -30.3978 2.14313 -4.22088 3.26487 4.87708 -6.56418 -1.06374 -2.97451 -6.62986 -1.55641 4.27074 -2.00659 -7.2263 4.35772 1.74407 0.68375
-4e-05 0.57928 0.00034 184.09327 0 -3.11807 2.01354 2.58376 -4.78632 -30.64313 2.80578 3.10811 -11.78864 -69.59547 -77.63523 24.21079 76.46407 -20.16713 -2.00127 1.59463 70.71032 61.53948 21.70468 -75.16952 -30.40379 2.14681 -4.21295 3.26972 4.87998 -6.57447 -1.06914 -2.97624 -6.62645 -1.55764 4.27639 -1.98754 -7.22211 4.35514 1.74393 0.66402
2e-05 0.57929 0.00025 184.10042 0 -3.13048 1.99714 2.5965 -4.80507 -30.63085 2.83427 3.11043 -11.7756 -69.62103 -77.59548 24.21539 76.49395 -20.17424 -1.99619 1.48127 70.65084 61.62521 21.72935 -75.22627 -30.40229 2.15606 -4.20471 3.29322 4.89465 -6.57817 -1.08326 -2.98142 -6.65165 -1.55531 4.30408 -1.94384 -7.21029 4.34974 1.72738 0.60484
0.0001 0.5793 0.00011 184.11348 0 -3.14559 1.97548 2.60787 -4.83048 -30.61837 2.8734 3.11215 -11.74459 -69.6558 -77.53481 24.22307 76.52848 -20.1808 -1.98911 1.34123 70.57477 61.73782 21.76164 -75.29845 -30.3981 2.16756 -4.19518 3.32461 4.91221 -6.58086 -1.10062 -2.98756 -6.6869 -1.55095 4.34091 -1.89058 -7.19568 4.34248 1.70442 0.52968
0.00017 0.57932 -1e-05 184.12439 0 -3.15955 1.95512 2.6188 -4.85152 -30.60569 2.90797 3.11359 -11.71785 -69.68321 -77.48042 24.23038 76.56011 -20.18542 -1.98417 1.21636 70.50663 61.83536 21.79207 -75.36611 -30.39501 2.17826 -4.18478 3.35364 4.92724 -6.58581 -1.11656 -2.99305 -6.71747 -1.54689 4.37482 -1.84092 -7.18213 4.33512 1.6838 0.46035
0.00023 0.57933 -9e-05 184.13289 0 -3.17332 1.9394 2.63435 -4.87814 -30.59427 2.94169 3.11741 -11.70823 -69.72432 -77.44039 24.23316 76.59425 -20.19926 -1.97406 1.07892 70.4364 61.94467 21.81531 -75.42319 -30.39256 2.188 -4.18032 3.37752 4.94753 -6.58361 -1.13235 -2.99942 -6.7487 -1.54564 4.40358 -1.79384 -7.16922 4.33159 1.66554 0.39648
0.00034 0.57934 -0.00028 184.14807 0 -3.18798 1.91265 2.63985 -4.89485 -30.57994 2.9793 3.11607 -11.65844 -69.73875 -77.36495 24.24633 76.62533 -20.19375 -1.97425 0.96079 70.36705 62.03612 21.85593 -75.50605 -30.38809 2.20029 -4.16343 3.41396 4.95728 -6.59551 -1.14915 -3.00417 -6.78062 -1.53777 4.44519 -1.7397 -7.15467 4.31979 1.64091 0.31789
0.00058 0.57939 -0.00077 184.17775 0 -3.20561 1.85801 2.61871 -4.88142 -30.56033 3.02869 3.10135 -11.5018 -69.67991 -77.19973 24.28606 76.63728 -20.13566 -2.00306 0.9078 70.30052 62.06939 21.93771 -75.65562 -30.37866 2.21879 -4.11024 3.48352 4.94007 -6.6513 -1.16842 -3.00458 -6.81518 -1.5149 4.52023 -1.66367 -7.13304 4.2847 1.59956 0.19971
0.00088 0.57944 -0.00137 184.21435 0 -3.22382 1.79227 2.5874 -4.85796 -30.53737 3.08089 3.08135 -11.3052 -69.59336 -76.99887 24.3368 76.64755 -20.05819 -2.04227 0.87426 70.23613 62.0841 22.03783 -75.83079 -30.36723 2.23984 -4.04497 3.56539 4.9117 -6.72046 -1.18849 -3.00326 -6.84956 -1.48495 4.60785 -1.58173 -7.11042 4.24154 1.55217 0.06791
0.00116 0.57948 -0.00193 184.24948 0 -3.24098 1.73074 2.56011 -4.83994 -30.51413 3.12956 3.06331 -11.12713 -69.51782 -76.81254 24.38292 76.66509 -19.98887 -2.07703 0.82827 70.17321 62.10895 22.13255 -75.99459 -30.35684 2.25987 -3.98674 3.64137 4.88647 -6.78038 -1.20787 -3.00248 -6.8819 -1.45638 4.68959 -1.50559 -7.09042 4.20271 1.50796 -0.05583
0.00142 0.57953 -0.00245 184.278 0 -3.26155 1.6724 2.53501 -4.81867 -30.49828 3.18844 3.04707 -10.94733 -69.44945 -76.63306 24.42593 76.65618 -19.92151 -2.11093 0.79628 70.0995 62.12795 22.21436 -76.1575 -30.34608 2.27932 -3.92202 3.7188 4.86922 -6.85354 -1.22871 -3.00277 -6.92336 -1.43539 4.77233 -1.41601 -7.06132 4.16108 1.46156 -0.18831
0.00173 0.57957 -0.00308 184.32154 0 -3.27513 1.60502 2.50335 -4.80138 -30.46652 3.22618 3.02588 -10.76131 -69.35923 -76.43046 24.48 76.7008 -19.84649 -2.14867 0.74048 70.04888 62.15383 22.32829 -76.32853 -30.33529 2.30063 -3.86785 3.79609 4.83303 -6.90243 -1.24667 -3.00043 -6.94585 -1.39711 4.85586 -1.35312 -7.05078 4.1233 1.41852 -0.30529
0.00216 0.57957 -0.00401 184.40767 0 -3.26907 1.51411 2.45271 -4.8004 -30.38915 3.20835 2.99179 -10.57274 -69.21709 -76.17809 24.54593 76.9038 -19.74643 -2.19838 0.61102 70.06214 62.20797 22.51862 -76.51238 -30.32779 2.32575 -3.84667 3.86956 4.74391 -6.88 -1.25654 -2.99101 -6.91442 -1.31123 4.93848 -1.36575 -7.09366 4.09883 1.3851 -0.3786
0.00263 0.57956 -0.00506 184.50822 0 -3.25598 1.41479 2.39648 -4.80332 -30.29633 3.16857 2.953 -10.37843 -69.05355 -75.90262 24.6264 77.15924 -19.64103 -2.25103 0.45758 70.09834 62.26878 22.74242 -76.70398 -30.3197 2.35273 -3.83638 3.94249 4.63665 -6.83287 -1.26347 -2.97906 -6.86414 -1.20845 5.02142 -1.40555 -7.15496 4.0784 1.35553 -0.43528
0.00307 0.57955 -0.00605 184.60017 0 -3.24622 1.32016 2.345 -4.80241 -30.21223 3.13631 2.91674 -10.18369 -68.89864 -75.63452 24.70965 77.38344 -19.54364 -2.29958 0.31745 70.12395 62.32313 22.95554 -76.89427 -30.3101 2.37935 -3.82052 4.0159 4.53999 -6.79775 -1.27172 -2.9684 -6.82346 -1.11448 5.10418 -1.43253 -7.20651 4.05564 1.32496 -0.49791
0.00353 0.57955 -0.00705 184.7006 0 -3.23591 1.22136 2.28376 -4.80939 -30.1209 3.11396 2.87868 -10.00053 -68.74739 -75.37905 24.75033 77.63708 -19.42168 -2.35953 0.16812 70.15111 62.39077 23.14872 -77.07651 -30.3083 2.40416 -3.80679 4.08876 4.43334 -6.75981 -1.28009 -2.95706 -6.77842 -1.01565 5.18752 -1.46074 -7.2636 4.03462 1.29094 -0.56789
0.00398 0.57954 -0.00807 184.78719 0 -3.22505 1.12953 2.24176 -4.80154 -30.04093 3.06639 2.84323 -9.79223 -68.58383 -75.0914 24.88717 77.84411 -19.3503 -2.39709 0.03159 70.17948 62.43325 23.39297 -77.27657 -30.2897 2.43298 -3.79146 4.16247 4.34291 -6.72169 -1.28747 -2.94661 -6.738 -0.92283 5.26955 -1.4936 -7.31383 4.01111 1.26517 -0.61831
0.0044 0.57952 -0.00909 184.82802 0 -3.21446 1.05779 2.25327 -4.74705 -29.99686 2.94873 2.81696 -9.51719 -68.39097 -74.72738 25.25165 77.89031 -19.4166 -2.36529 -0.05933 70.21398 62.39807 23.75531 -77.52728 -30.22805 2.47373 -3.76821 4.2385 4.30553 -6.68917 -1.29314 -2.93865 -6.71497 -0.85245 5.34809 -1.52662 -7.33813 3.97909 1.26059 -0.61997
